<svg width="278" height="87" viewBox="0 0 278 87" fill="none" xmlns="http://www.w3.org/2000/svg">
<path d="M63.2179 65.64C60.9566 65.64 58.9299 65.2133 57.1379 64.36C55.3886 63.464 54.0019 62.2693 52.9779 60.776C51.9966 59.2827 51.5059 57.5973 51.5059 55.72C51.5059 53.416 52.1032 51.6027 53.2979 50.28C54.4926 48.9147 56.4339 47.9333 59.1219 47.336C61.8099 46.7387 65.4152 46.44 69.9379 46.44H72.1779V45.096C72.1779 42.9627 71.7086 41.4267 70.7699 40.488C69.8312 39.5493 68.2526 39.08 66.0339 39.08C64.7966 39.08 63.4526 39.2293 62.0019 39.528C60.5939 39.8267 59.1006 40.3387 57.5219 41.064C56.4979 41.5333 55.6446 41.5973 54.9619 41.256C54.2792 40.872 53.8099 40.296 53.5539 39.528C53.3406 38.7173 53.3832 37.9067 53.6819 37.096C54.0232 36.2853 54.6846 35.688 55.6659 35.304C57.6286 34.4933 59.5059 33.9173 61.2979 33.576C63.1326 33.2347 64.7966 33.064 66.2899 33.064C70.8552 33.064 74.2472 34.1307 76.4659 36.264C78.6846 38.3547 79.7939 41.6187 79.7939 46.056V61.416C79.7939 64.1467 78.5566 65.512 76.0819 65.512C73.5646 65.512 72.3059 64.1467 72.3059 61.416V60.008C71.5806 61.7573 70.4286 63.144 68.8499 64.168C67.2712 65.1493 65.3939 65.64 63.2179 65.64ZM64.8819 60.136C66.9726 60.136 68.7006 59.4107 70.0659 57.96C71.4739 56.5093 72.1779 54.6747 72.1779 52.456V51.048H70.0019C65.9912 51.048 63.1966 51.368 61.6179 52.008C60.0819 52.6053 59.3139 53.7147 59.3139 55.336C59.3139 56.744 59.8046 57.896 60.7859 58.792C61.7672 59.688 63.1326 60.136 64.8819 60.136ZM99.9459 65.64C97.2152 65.64 94.8046 64.9787 92.7139 63.656C90.6659 62.3333 89.0659 60.456 87.9139 58.024C86.7619 55.5493 86.1859 52.648 86.1859 49.32C86.1859 45.9493 86.7619 43.0693 87.9139 40.68C89.0659 38.248 90.6659 36.3707 92.7139 35.048C94.8046 33.7253 97.2152 33.064 99.9459 33.064C102.165 33.064 104.17 33.5547 105.962 34.536C107.754 35.5173 109.098 36.8187 109.994 38.44V23.4C109.994 20.712 111.317 19.368 113.962 19.368C116.65 19.368 117.994 20.712 117.994 23.4V61.416C117.994 64.1467 116.671 65.512 114.026 65.512C111.381 65.512 110.058 64.1467 110.058 61.416V60.072C109.162 61.7787 107.818 63.144 106.026 64.168C104.234 65.1493 102.207 65.64 99.9459 65.64ZM102.186 59.56C104.575 59.56 106.495 58.7067 107.946 57C109.397 55.2507 110.122 52.6907 110.122 49.32C110.122 45.9067 109.397 43.368 107.946 41.704C106.495 39.9973 104.575 39.144 102.186 39.144C99.7966 39.144 97.8766 39.9973 96.4259 41.704C94.9752 43.368 94.2499 45.9067 94.2499 49.32C94.2499 52.6907 94.9752 55.2507 96.4259 57C97.8766 58.7067 99.7966 59.56 102.186 59.56ZM137.745 65.64C135.91 65.64 133.969 65.448 131.921 65.064C129.873 64.68 128.038 64.0187 126.417 63.08C125.521 62.568 124.966 61.9493 124.753 61.224C124.54 60.456 124.561 59.752 124.817 59.112C125.116 58.4293 125.585 57.9387 126.225 57.64C126.908 57.3413 127.697 57.4053 128.593 57.832C130.3 58.6427 131.9 59.2187 133.393 59.56C134.886 59.8587 136.358 60.008 137.809 60.008C139.857 60.008 141.372 59.6667 142.353 58.984C143.377 58.2587 143.889 57.32 143.889 56.168C143.889 54.376 142.566 53.224 139.921 52.712L133.521 51.496C128.102 50.472 125.393 47.656 125.393 43.048C125.393 41 125.948 39.2293 127.057 37.736C128.209 36.2427 129.788 35.0907 131.793 34.28C133.798 33.4693 136.102 33.064 138.705 33.064C142.46 33.064 145.809 33.896 148.753 35.56C149.564 35.9867 150.033 36.584 150.161 37.352C150.332 38.0773 150.246 38.7813 149.905 39.464C149.606 40.104 149.116 40.5733 148.433 40.872C147.75 41.128 146.961 41.0427 146.065 40.616C144.742 39.9333 143.462 39.4427 142.225 39.144C141.03 38.8453 139.878 38.696 138.769 38.696C136.678 38.696 135.121 39.0587 134.097 39.784C133.116 40.5093 132.625 41.4693 132.625 42.664C132.625 44.5413 133.841 45.6933 136.273 46.12L142.673 47.336C145.446 47.848 147.537 48.7867 148.945 50.152C150.396 51.5173 151.121 53.352 151.121 55.656C151.121 58.7707 149.905 61.224 147.473 63.016C145.041 64.7653 141.798 65.64 137.745 65.64ZM173.155 65.64C164.878 65.64 160.739 61.544 160.739 53.352V39.72H157.411C155.278 39.72 154.211 38.7173 154.211 36.712C154.211 34.7067 155.278 33.704 157.411 33.704H160.739V27.88C160.739 25.192 162.083 23.848 164.771 23.848C167.416 23.848 168.739 25.192 168.739 27.88V33.704H175.523C177.656 33.704 178.723 34.7067 178.723 36.712C178.723 38.7173 177.656 39.72 175.523 39.72H168.739V52.904C168.739 54.952 169.187 56.488 170.083 57.512C170.979 58.536 172.43 59.048 174.435 59.048C175.16 59.048 175.8 58.984 176.355 58.856C176.91 58.728 177.4 58.6427 177.827 58.6C178.339 58.5573 178.766 58.728 179.107 59.112C179.448 59.4533 179.619 60.1787 179.619 61.288C179.619 62.1413 179.47 62.9093 179.171 63.592C178.915 64.232 178.424 64.68 177.699 64.936C177.144 65.1067 176.419 65.256 175.523 65.384C174.627 65.5547 173.838 65.64 173.155 65.64ZM193.685 65.64C191.424 65.64 189.397 65.2133 187.605 64.36C185.856 63.464 184.469 62.2693 183.445 60.776C182.464 59.2827 181.973 57.5973 181.973 55.72C181.973 53.416 182.571 51.6027 183.765 50.28C184.96 48.9147 186.901 47.9333 189.589 47.336C192.277 46.7387 195.883 46.44 200.405 46.44H202.645V45.096C202.645 42.9627 202.176 41.4267 201.237 40.488C200.299 39.5493 198.72 39.08 196.501 39.08C195.264 39.08 193.92 39.2293 192.469 39.528C191.061 39.8267 189.568 40.3387 187.989 41.064C186.965 41.5333 186.112 41.5973 185.429 41.256C184.747 40.872 184.277 40.296 184.021 39.528C183.808 38.7173 183.851 37.9067 184.149 37.096C184.491 36.2853 185.152 35.688 186.133 35.304C188.096 34.4933 189.973 33.9173 191.765 33.576C193.6 33.2347 195.264 33.064 196.757 33.064C201.323 33.064 204.715 34.1307 206.933 36.264C209.152 38.3547 210.261 41.6187 210.261 46.056V61.416C210.261 64.1467 209.024 65.512 206.549 65.512C204.032 65.512 202.773 64.1467 202.773 61.416V60.008C202.048 61.7573 200.896 63.144 199.317 64.168C197.739 65.1493 195.861 65.64 193.685 65.64ZM195.349 60.136C197.44 60.136 199.168 59.4107 200.533 57.96C201.941 56.5093 202.645 54.6747 202.645 52.456V51.048H200.469C196.459 51.048 193.664 51.368 192.085 52.008C190.549 52.6053 189.781 53.7147 189.781 55.336C189.781 56.744 190.272 57.896 191.253 58.792C192.235 59.688 193.6 60.136 195.349 60.136ZM222.477 65.512C219.747 65.512 218.381 64.1467 218.381 61.416V37.224C218.381 34.536 219.683 33.192 222.285 33.192C224.888 33.192 226.189 34.536 226.189 37.224V39.208C227.725 35.5387 231.011 33.4907 236.045 33.064C237.88 32.8507 238.904 33.896 239.117 36.2C239.331 38.4613 238.221 39.72 235.789 39.976L234.381 40.104C229.133 40.616 226.509 43.304 226.509 48.168V61.416C226.509 64.1467 225.165 65.512 222.477 65.512ZM260.872 65.64C252.595 65.64 248.456 61.544 248.456 53.352V39.72H245.128C242.995 39.72 241.928 38.7173 241.928 36.712C241.928 34.7067 242.995 33.704 245.128 33.704H248.456V27.88C248.456 25.192 249.8 23.848 252.488 23.848C255.134 23.848 256.456 25.192 256.456 27.88V33.704H263.24C265.374 33.704 266.44 34.7067 266.44 36.712C266.44 38.7173 265.374 39.72 263.24 39.72H256.456V52.904C256.456 54.952 256.904 56.488 257.8 57.512C258.696 58.536 260.147 59.048 262.152 59.048C262.878 59.048 263.518 58.984 264.072 58.856C264.627 58.728 265.118 58.6427 265.544 58.6C266.056 58.5573 266.483 58.728 266.824 59.112C267.166 59.4533 267.336 60.1787 267.336 61.288C267.336 62.1413 267.187 62.9093 266.888 63.592C266.632 64.232 266.142 64.68 265.416 64.936C264.862 65.1067 264.136 65.256 263.24 65.384C262.344 65.5547 261.555 65.64 260.872 65.64Z" fill="url(#paint0_linear_49_8)"/>
<path d="M38.8322 44.5631C41.437 46.114 41.437 49.886 38.8322 51.4369L17.1975 64.3185C14.5312 65.906 11.1511 63.9847 11.1511 60.8816L11.1511 35.1184C11.1511 32.0153 14.5312 30.094 17.1975 31.6815L38.8322 44.5631Z" fill="url(#paint1_linear_49_8)"/>
<defs>
<linearGradient id="paint0_linear_49_8" x1="48.7539" y1="43.5" x2="278" y2="43.5" gradientUnits="userSpaceOnUse">
<stop stop-color="#1C45D6"/>
<stop offset="1" stop-color="#7903EF"/>
</linearGradient>
<linearGradient id="paint1_linear_49_8" x1="11.7365" y1="48.4694" x2="44.9898" y2="48.4694" gradientUnits="userSpaceOnUse">
<stop stop-color="#1F44D7"/>
<stop offset="1" stop-color="#7903EF"/>
</linearGradient>
</defs>
</svg>
