<?xml version="1.0" encoding="UTF-8"?> <svg xmlns="http://www.w3.org/2000/svg" xmlns:xlink="http://www.w3.org/1999/xlink" width="1920" zoomAndPan="magnify" viewBox="0 0 1440 339.749992" height="453" preserveAspectRatio="xMidYMid meet"><path fill="#121329" d="M 309.265625 312.554688 L 255.160156 312.554688 C 245.144531 312.554688 235.277344 310.125 226.402344 305.476562 C 217.527344 300.828125 209.914062 294.097656 204.207031 285.863281 L 170.238281 236.789062 L 143.675781 198.417969 C 142.464844 196.660156 140.726562 195.339844 138.714844 194.644531 C 136.699219 193.953125 134.515625 193.921875 132.484375 194.558594 C 130.449219 195.195312 128.675781 196.464844 127.417969 198.183594 C 126.160156 199.902344 125.484375 201.980469 125.492188 204.109375 L 125.492188 296.59375 C 125.492188 300.828125 123.8125 304.886719 120.820312 307.878906 C 117.824219 310.871094 113.765625 312.554688 109.535156 312.554688 L 62.636719 312.554688 C 58.40625 312.546875 54.351562 310.863281 51.359375 307.871094 C 48.371094 304.878906 46.6875 300.824219 46.679688 296.59375 L 46.679688 227.746094 C 46.679688 219.605469 48.28125 211.546875 51.398438 204.027344 C 54.511719 196.507812 59.078125 189.671875 64.832031 183.917969 C 70.585938 178.160156 77.417969 173.597656 84.9375 170.480469 C 92.457031 167.367188 100.515625 165.765625 108.65625 165.765625 L 120.875 165.765625 C 121.664062 165.761719 122.4375 165.570312 123.136719 165.203125 C 123.832031 164.839844 124.433594 164.308594 124.882812 163.660156 L 170.140625 98.378906 L 202.960938 50.964844 C 208.65625 42.71875 216.269531 35.980469 225.144531 31.328125 C 234.019531 26.675781 243.894531 24.246094 253.914062 24.253906 L 307.972656 24.253906 C 308.859375 24.253906 309.734375 24.496094 310.496094 24.957031 C 311.257812 25.414062 311.878906 26.074219 312.292969 26.859375 C 312.710938 27.648438 312.902344 28.535156 312.851562 29.421875 C 312.800781 30.3125 312.507812 31.167969 312.003906 31.902344 L 232.800781 146.308594 C 228.46875 152.554688 226.144531 159.972656 226.144531 167.574219 C 226.144531 175.171875 228.46875 182.589844 232.800781 188.835938 L 313.398438 304.878906 C 313.910156 305.621094 314.210938 306.488281 314.261719 307.390625 C 314.3125 308.292969 314.113281 309.1875 313.683594 309.984375 C 313.257812 310.777344 312.617188 311.4375 311.839844 311.890625 C 311.058594 312.347656 310.167969 312.574219 309.265625 312.554688 Z M 309.265625 312.554688 " fill-opacity="1" fill-rule="nonzero"></path><path fill="#121329" d="M 833.925781 307.152344 L 766.820312 307.152344 L 766.820312 184.410156 C 766.820312 178.726562 764.5625 173.273438 760.542969 169.253906 C 756.527344 165.234375 751.070312 162.976562 745.390625 162.976562 C 739.703125 162.976562 734.253906 165.234375 730.230469 169.253906 C 726.214844 173.273438 723.957031 178.726562 723.957031 184.410156 L 723.957031 307.054688 L 656.972656 307.054688 L 656.972656 302.921875 C 656.972656 282.246094 656.972656 228.867188 656.972656 195.628906 C 656.957031 191.921875 656.214844 188.257812 654.78125 184.835938 C 653.355469 181.417969 651.265625 178.316406 648.632812 175.707031 C 646.003906 173.097656 642.886719 171.027344 639.457031 169.625 C 636.027344 168.222656 632.355469 167.507812 628.648438 167.523438 L 613.984375 167.523438 L 613.984375 307.152344 L 547.121094 307.152344 L 547.121094 102.632812 L 550.664062 102.632812 C 576.027344 102.632812 601.402344 102.878906 626.765625 102.632812 C 651.203125 102.339844 672.976562 108.546875 690.304688 126.804688 C 693.113281 124.164062 695.78125 121.429688 698.6875 118.984375 C 710.097656 109.355469 722.6875 101.875 737.613281 99.089844 C 776.449219 91.609375 819.878906 117.027344 830.796875 154.054688 C 832.828125 160.980469 833.875 168.152344 833.902344 175.367188 C 833.925781 218.480469 833.925781 306.246094 833.925781 307.152344 Z M 833.925781 307.152344 " fill-opacity="1" fill-rule="nonzero"></path><path fill="#121329" d="M 1160.953125 307.152344 L 1093.847656 307.152344 L 1093.847656 184.410156 C 1093.949219 181.535156 1093.460938 178.671875 1092.433594 175.988281 C 1091.398438 173.304688 1089.839844 170.855469 1087.839844 168.789062 C 1085.84375 166.722656 1083.449219 165.078125 1080.796875 163.953125 C 1078.15625 162.832031 1075.304688 162.253906 1072.429688 162.253906 C 1069.554688 162.253906 1066.707031 162.832031 1064.0625 163.953125 C 1061.414062 165.078125 1059.019531 166.722656 1057.023438 168.789062 C 1055.019531 170.855469 1053.460938 173.304688 1052.425781 175.988281 C 1051.390625 178.671875 1050.910156 181.535156 1051.011719 184.410156 L 1051.011719 307.054688 L 983.925781 307.054688 L 983.925781 302.921875 C 983.925781 282.246094 983.925781 228.867188 983.925781 195.628906 C 983.925781 188.148438 980.957031 180.976562 975.667969 175.6875 C 970.382812 170.398438 963.203125 167.425781 955.726562 167.425781 L 941.0625 167.425781 L 941.0625 307.054688 L 874.03125 307.054688 L 874.03125 102.632812 L 877.574219 102.632812 C 902.9375 102.632812 928.304688 102.878906 953.671875 102.632812 C 978.113281 102.339844 999.886719 108.546875 1017.210938 126.804688 C 1020.023438 124.164062 1022.683594 121.429688 1025.597656 118.984375 C 1037.007812 109.355469 1049.589844 101.875 1064.523438 99.089844 C 1103.359375 91.609375 1146.78125 117.027344 1157.707031 154.054688 C 1159.726562 160.980469 1160.765625 168.15625 1160.785156 175.367188 Z M 1160.953125 307.152344 " fill-opacity="1" fill-rule="nonzero"></path><path fill="#121329" d="M 305.089844 205.28125 C 305.089844 154.300781 342.917969 108.277344 393.210938 99.75 C 432.851562 93.027344 465.523438 107.082031 490.964844 137.507812 C 500.1875 148.167969 507.121094 160.613281 511.324219 174.070312 C 515.527344 187.527344 516.917969 201.703125 515.402344 215.71875 C 512.714844 243.484375 500.175781 266.554688 479.722656 285.203125 C 460.167969 303.117188 436.808594 312.847656 410.050781 312.480469 C 374.6875 311.941406 346.949219 296.179688 326.054688 268.144531 C 312.289062 250.09375 304.914062 227.984375 305.089844 205.28125 Z M 369.703125 205.28125 C 369.714844 212.4375 371.386719 219.488281 374.589844 225.886719 C 377.226562 231.773438 381.269531 236.917969 386.359375 240.878906 C 391.449219 244.835938 397.433594 247.484375 403.785156 248.589844 C 410.140625 249.695312 416.667969 249.222656 422.796875 247.214844 C 428.921875 245.210938 434.464844 241.730469 438.933594 237.082031 C 445.792969 229.617188 450.027344 220.121094 450.996094 210.035156 C 451.96875 199.945312 449.621094 189.816406 444.3125 181.183594 C 439.171875 172.265625 430.714844 165.742188 420.78125 163.039062 C 410.851562 160.339844 400.253906 161.675781 391.304688 166.765625 C 376.640625 175.148438 370.632812 188.859375 369.605469 205.1875 Z M 369.703125 205.28125 " fill-opacity="1" fill-rule="nonzero"></path><path fill="#121329" d="M 1402.988281 201.054688 C 1403.113281 257.953125 1362.519531 305.097656 1310.492188 311.648438 C 1274.421875 316.195312 1244.339844 303.414062 1220.074219 276.820312 C 1204.707031 260.390625 1195.128906 239.390625 1192.796875 217.015625 C 1189.601562 186.367188 1198.542969 159.335938 1218.238281 135.898438 C 1234.097656 116.296875 1256.675781 103.292969 1281.585938 99.40625 C 1313.722656 94.324219 1342.066406 103.390625 1366.085938 124.925781 C 1390.113281 146.457031 1402.425781 173.097656 1402.988281 201.054688 Z M 1338.328125 205.308594 C 1338.308594 198.402344 1336.742188 191.589844 1333.757812 185.363281 C 1320.167969 156.257812 1286.742188 156.476562 1271.246094 171.777344 C 1265.125 177.417969 1260.683594 184.644531 1258.421875 192.65625 C 1256.164062 200.671875 1256.167969 209.152344 1258.4375 217.164062 C 1264.574219 241.382812 1287.765625 254.457031 1310.417969 246.929688 C 1326.621094 241.578125 1338.328125 224.105469 1338.328125 205.308594 Z M 1338.328125 205.308594 " fill-opacity="1" fill-rule="nonzero"></path></svg> 