<svg xmlns="http://www.w3.org/2000/svg" width="1000" height="450" viewBox="0 0 1000 450" fill="none"><path d="M291.212 260.654C281.728 256.624 273.34 250.994 266.049 243.675C258.759 236.503 253.067 228.117 249.007 218.576C244.917 209.034 242.901 198.959 242.901 188.351C242.901 177.742 244.947 167.637 249.007 158.036C253.067 148.435 258.759 139.989 266.049 132.7C273.34 125.41 281.728 119.75 291.212 115.72C300.697 111.69 310.743 109.675 321.384 109.675C331.995 109.675 342.101 111.72 351.704 115.779C361.307 119.869 369.694 125.499 376.867 132.671C384.039 139.96 389.671 148.406 393.761 158.006C397.821 167.608 399.866 177.712 399.866 188.32C399.866 198.929 397.851 208.974 393.82 218.487C389.789 227.969 384.129 236.355 376.837 243.645C369.665 250.816 361.247 256.446 351.675 260.536C342.071 264.625 331.965 266.64 321.355 266.64C310.743 266.669 300.697 264.654 291.212 260.654ZM338.011 227.673C343.198 225.48 347.792 222.399 351.763 218.428C355.735 214.457 358.788 209.893 360.922 204.767C363.055 199.61 364.152 194.158 364.152 188.351C364.152 182.572 363.055 177.09 360.862 171.933C358.669 166.778 355.586 162.244 351.615 158.273C347.762 154.421 343.198 151.399 337.952 149.176C332.706 146.983 327.163 145.886 321.384 145.886C315.693 145.886 310.24 146.983 304.965 149.176C299.719 151.369 295.154 154.391 291.301 158.273C287.33 162.244 284.247 166.807 282.054 171.933C279.861 177.09 278.764 182.542 278.764 188.351C278.764 194.128 279.861 199.61 282.054 204.767C284.247 209.923 287.33 214.487 291.301 218.428C295.273 222.399 299.837 225.48 304.965 227.673C310.121 229.866 315.575 230.962 321.384 230.962C327.253 230.962 332.824 229.866 338.011 227.673Z" fill="url(#paint0_linear_414_1662)"></path><path d="M96.1835 260.935C92.7389 257.451 91.0166 253.397 91.0166 248.712C90.8084 244.268 92.5606 240.124 96.3319 236.34L183.376 145.561H110.676C105.746 145.561 101.53 143.819 98.1139 140.335C94.6693 136.852 92.947 132.558 92.947 127.452C92.947 125.051 93.3923 122.768 94.3127 120.606C95.2332 118.444 96.4812 116.522 98.1139 114.9C101.559 111.417 105.746 109.675 110.676 109.675H222.369C224.21 109.675 226.289 110.126 228.664 110.966H228.813L229.466 111.297L230.268 111.627L231.872 112.618L232.852 113.279C235.228 114.81 237.01 116.852 238.257 119.405C239.504 121.957 240.098 124.6 240.098 127.303V127.963C239.891 133.398 237.96 137.753 234.307 140.997L147.441 231.446H226.11C231.278 231.446 235.555 233.067 238.999 236.34C242.444 239.613 244.167 243.727 244.167 248.712C244.167 253.697 242.444 257.962 238.999 261.415C235.555 264.899 231.248 266.64 226.11 266.64H109.102C104.024 266.64 99.7177 264.748 96.1835 260.935Z" fill="#002E73"></path><path d="M419.272 316.838C417.553 315.224 416.219 313.252 415.241 310.921C414.263 308.59 413.789 306.139 413.789 303.539V189.02C413.789 178.321 415.834 168.131 419.894 158.448C423.955 148.765 429.645 140.248 436.936 132.896C444.227 125.544 452.645 119.836 462.188 115.772C471.732 111.708 481.809 109.675 492.42 109.675C502.941 109.675 512.989 111.737 522.592 115.831C532.194 119.956 540.582 125.634 547.754 132.866C554.927 140.217 560.559 148.735 564.649 158.418C568.709 168.101 570.754 178.291 570.754 188.99C570.754 199.689 568.738 209.82 564.708 219.413C560.677 228.976 555.016 237.434 547.724 244.785C540.553 252.017 532.135 257.696 522.562 261.82C512.959 265.944 502.912 267.976 492.39 267.976C476.741 267.976 462.425 263.643 449.444 255.006V303.509C449.444 308.919 447.873 313.401 444.702 316.987C441.53 320.544 437.263 322.337 431.927 322.337C426.919 322.337 422.681 320.514 419.272 316.838ZM508.928 228.677C514.115 226.466 518.709 223.358 522.68 219.354C526.652 215.349 529.705 210.746 531.839 205.576C533.973 200.376 535.069 194.877 535.069 189.02C535.069 183.192 534.002 177.664 531.839 172.463C529.705 167.264 526.622 162.692 522.68 158.687C518.827 154.802 514.263 151.754 509.017 149.512C503.771 147.301 498.229 146.194 492.449 146.194C486.67 146.194 481.128 147.301 475.882 149.512C470.636 151.724 466.071 154.772 462.218 158.687C458.247 162.692 455.164 167.294 452.971 172.463C450.778 177.664 449.681 183.163 449.681 189.02C449.681 194.847 450.778 200.376 452.971 205.576C455.164 210.776 458.247 215.379 462.218 219.354C466.19 223.358 470.754 226.466 475.97 228.677C481.157 230.889 486.67 231.994 492.449 231.994C498.258 231.994 503.741 230.889 508.928 228.677Z" fill="#002E73"></path><path d="M588.895 316.838C587.176 315.224 585.842 313.252 584.864 310.921C583.886 308.59 583.412 306.139 583.412 303.539V189.02C583.412 178.321 585.457 168.131 589.517 158.448C593.578 148.765 599.269 140.248 606.56 132.896C613.85 125.544 622.268 119.836 631.811 115.772C641.355 111.708 651.432 109.675 662.043 109.675C672.564 109.675 682.612 111.737 692.215 115.831C701.817 119.956 710.205 125.634 717.377 132.866C724.55 140.217 730.182 148.735 734.272 158.418C738.332 168.101 740.377 178.291 740.377 188.99C740.377 199.689 738.361 209.82 734.331 219.413C730.3 228.976 724.639 237.434 717.348 244.785C710.176 252.017 701.758 257.696 692.185 261.82C682.582 265.944 672.535 267.976 662.013 267.976C646.364 267.976 632.048 263.643 619.067 255.006V303.509C619.067 308.919 617.496 313.401 614.325 316.987C611.153 320.544 606.886 322.337 601.55 322.337C596.542 322.337 592.304 320.514 588.895 316.838ZM678.551 228.677C683.738 226.466 688.332 223.358 692.303 219.354C696.275 215.349 699.328 210.746 701.462 205.576C703.596 200.376 704.692 194.877 704.692 189.02C704.692 183.192 703.625 177.664 701.462 172.463C699.328 167.264 696.245 162.692 692.303 158.687C688.45 154.802 683.886 151.754 678.64 149.512C673.394 147.301 667.852 146.194 662.072 146.194C656.293 146.194 650.751 147.301 645.505 149.512C640.259 151.724 635.694 154.772 631.841 158.687C627.87 162.692 624.787 167.294 622.594 172.463C620.401 177.664 619.304 183.163 619.304 189.02C619.304 194.847 620.401 200.376 622.594 205.576C624.787 210.776 627.87 215.379 631.841 219.354C635.813 223.358 640.377 226.466 645.593 228.677C650.78 230.889 656.293 231.994 662.072 231.994C667.882 231.994 673.364 230.889 678.551 228.677Z" fill="#002E73"></path><path d="M904.737 115.026C900.97 111.468 896.692 109.675 891.853 109.675C886.926 109.675 882.675 111.468 879.11 115.026C875.667 118.493 873.945 122.797 873.945 127.998V187.54C873.735 193.159 872.426 198.449 870.081 203.44C867.71 208.432 864.504 212.856 860.429 216.742C856.45 220.628 851.91 223.647 846.798 225.739C841.695 227.862 836.408 228.908 830.91 228.908C825.21 228.908 819.774 227.771 814.548 225.5C809.322 223.228 804.747 220.09 800.768 216.085C796.675 212.079 793.522 207.476 791.265 202.215C789.008 196.985 787.884 191.484 787.884 185.746V127.998C787.884 122.916 786.101 118.583 782.562 115.026C779.031 111.468 774.789 109.675 769.827 109.675C764.9 109.675 760.649 111.468 757.083 115.026C753.552 118.583 751.77 122.916 751.77 127.998V185.567C751.77 196.387 753.816 206.639 757.891 216.384C761.957 226.127 767.657 234.616 774.965 241.85C782.272 249.203 790.73 254.942 800.355 259.036C809.972 263.162 820.16 265.194 830.884 265.194C846.561 265.194 860.903 259.665 873.91 248.635V261.547C873.91 284.533 855.265 303.543 833.018 303.543C821.442 303.543 810.183 298.193 802.34 289.047C795.78 280.856 784.195 279.9 776.686 286.834C769.168 293.769 768.219 305.725 774.815 313.616C789.517 331.252 810.482 341.325 833.018 341.325C875.254 341.325 909.998 305.427 909.998 261.637V248.814V246.722V127.909C910.06 122.916 908.303 118.583 904.737 115.026Z" fill="#002E73"></path><defs><linearGradient id="paint0_linear_414_1662" x1="264.568" y1="133.75" x2="377.236" y2="244.492" gradientUnits="userSpaceOnUse"><stop stop-color="#00FFE6"></stop><stop offset="1" stop-color="#7B3DFF"></stop></linearGradient></defs></svg>