<svg width="32" height="32" viewBox="0 0 32 32" fill="none" xmlns="http://www.w3.org/2000/svg">
  <path d="M16 0C7.163 0 0 7.163 0 16C0 24.837 7.163 32 16 32C24.837 32 32 24.837 32 16C32 7.163 24.837 0 16 0ZM16 28C9.373 28 4 22.627 4 16C4 9.373 9.373 4 16 4C22.627 4 28 9.373 28 16C28 22.627 22.627 28 16 28Z" fill="url(#paint0_linear)"/>
  <path d="M16 8C11.582 8 8 11.582 8 16C8 20.418 11.582 24 16 24C20.418 24 24 20.418 24 16C24 11.582 20.418 8 16 8ZM16 20C13.791 20 12 18.209 12 16C12 13.791 13.791 12 16 12C18.209 12 20 13.791 20 16C20 18.209 18.209 20 16 20Z" fill="url(#paint1_linear)"/>
  <defs>
    <linearGradient id="paint0_linear" x1="0" y1="16" x2="32" y2="16" gradientUnits="userSpaceOnUse">
      <stop offset="0" stop-color="#2A15EB"/>
      <stop offset="0.5" stop-color="#05D7FB"/>
      <stop offset="1" stop-color="#DE1CFB"/>
    </linearGradient>
    <linearGradient id="paint1_linear" x1="8" y1="16" x2="24" y2="16" gradientUnits="userSpaceOnUse">
      <stop offset="0" stop-color="#2A15EB"/>
      <stop offset="0.5" stop-color="#05D7FB"/>
      <stop offset="1" stop-color="#DE1CFB"/>
    </linearGradient>
  </defs>
</svg>