<svg width="48" height="48" viewBox="0 0 48 48" fill="none" xmlns="http://www.w3.org/2000/svg">
  <circle cx="24" cy="24" r="24" fill="#F3F4F6"/>
  <path d="M24 13C19.0294 13 15 17.0294 15 22C15 24.9823 16.4951 27.6299 18.7761 29.2191C16.8724 30.5472 15.3318 32.3162 14.2922 34.3701C14.1072 34.7256 14.2307 35.1616 14.5862 35.3466C14.9417 35.5316 15.3777 35.4081 15.5627 35.0526C17.0621 32.1983 19.5776 29.9735 22.5491 28.9451C23.0167 28.981 23.4999 29 24 29C28.9706 29 33 24.9706 33 20C33 15.0294 28.9706 11 24 11ZM24 27C20.134 27 17 23.866 17 20C17 16.134 20.134 13 24 13C27.866 13 31 16.134 31 20C31 23.866 27.866 27 24 27Z" fill="#4B5563"/>
</svg>