<svg width="48" height="48" viewBox="0 0 48 48" fill="none" xmlns="http://www.w3.org/2000/svg">
  <circle cx="24" cy="24" r="24" fill="#F3F4F6"/>
  <path d="M24 11C19.0294 11 15 15.0294 15 20C15 24.9706 19.0294 29 24 29C28.9706 29 33 24.9706 33 20C33 15.0294 28.9706 11 24 11ZM24 27C20.134 27 17 23.866 17 20C17 16.134 20.134 13 24 13C27.866 13 31 16.134 31 20C31 23.866 27.866 27 24 27Z" fill="#4B5563"/>
  <path d="M24 14C21.2386 14 19 16.2386 19 19C19 21.7614 21.2386 24 24 24C26.7614 24 29 21.7614 29 19C29 16.2386 26.7614 14 24 14ZM24 22C22.3431 22 21 20.6569 21 19C21 17.3431 22.3431 16 24 16C25.6569 16 27 17.3431 27 19C27 20.6569 25.6569 22 24 22Z" fill="#4B5563"/>
  <path d="M32 35.5C32 31.9101 28.4183 29 24 29C19.5817 29 16 31.9101 16 35.5C16 36.0523 16.4477 36.5 17 36.5C17.5523 36.5 18 36.0523 18 35.5C18 33.0147 20.6863 31 24 31C27.3137 31 30 33.0147 30 35.5C30 36.0523 30.4477 36.5 31 36.5C31.5523 36.5 32 36.0523 32 35.5Z" fill="#4B5563"/>
</svg>