<svg width="48" height="48" viewBox="0 0 48 48" fill="none" xmlns="http://www.w3.org/2000/svg">
  <circle cx="24" cy="24" r="24" fill="#F3F4F6"/>
  <path d="M24 13C19.0294 13 15 17.0294 15 22C15 24.9823 16.4951 27.6299 18.7761 29.2191C16.8724 30.5472 15.3318 32.3162 14.2922 34.3701C14.1072 34.7256 14.2307 35.1616 14.5862 35.3466C14.9417 35.5316 15.3777 35.4081 15.5627 35.0526C17.0621 32.1983 19.5776 29.9735 22.5491 28.9451C23.0167 28.981 23.4999 29 24 29C28.9706 29 33 24.9706 33 20C33 15.0294 28.9706 11 24 11ZM24 27C20.134 27 17 23.866 17 20C17 16.134 20.134 13 24 13C27.866 13 31 16.134 31 20C31 23.866 27.866 27 24 27Z" fill="#4B5563"/>
  <path d="M24 15C21.7909 15 20 16.7909 20 19C20 21.2091 21.7909 23 24 23C26.2091 23 28 21.2091 28 19C28 16.7909 26.2091 15 24 15ZM24 21C22.8954 21 22 20.1046 22 19C22 17.8954 22.8954 17 24 17C25.1046 17 26 17.8954 26 19C26 20.1046 25.1046 21 24 21Z" fill="#4B5563"/>
  <path d="M31.5 32.5C31.5 29.4624 28.5376 27 25 27C21.4624 27 18.5 29.4624 18.5 32.5C18.5 33.0523 18.9477 33.5 19.5 33.5C20.0523 33.5 20.5 33.0523 20.5 32.5C20.5 30.567 22.567 29 25 29C27.433 29 29.5 30.567 29.5 32.5C29.5 33.0523 29.9477 33.5 30.5 33.5C31.0523 33.5 31.5 33.0523 31.5 32.5Z" fill="#4B5563"/>
</svg>