{
  "asset": {
    "version": "2.0",
    "generator": "Trae AI"
  },
  "scene": 0,
  "scenes": [{
    "nodes": [0]
  }],
  "nodes": [{
    "name": "AnnaHead",
    "mesh": 0
  }],
  "meshes": [{
    "primitives": [{
      "attributes": {
        "POSITION": 0,
        "NORMAL": 1,
        "TEXCOORD_0": 2
      },
      "indices": 3,
      "material": 0
    }]
  }],
  "materials": [{
    "name": "AnnaHeadMaterial",
    "pbrMetallicRoughness": {
      "baseColorFactor": [0.0196, 0.0824, 0.9216, 1.0],
      "metallicFactor": 0.5,
      "roughnessFactor": 0.3
    },
    "emissiveFactor": [0.0196, 0.8431, 0.9843],
    "emissiveIntensity": 0.2
  }],
  "accessors": [{
    "bufferView": 0,
    "componentType": 5126,
    "count": 559,
    "type": "VEC3",
    "min": [-1.0, -1.0, -1.0],
    "max": [1.0, 1.0, 1.0]
  }, {
    "bufferView": 1,
    "componentType": 5126,
    "count": 559,
    "type": "VEC3"
  }, {
    "bufferView": 2,
    "componentType": 5126,
    "count": 559,
    "type": "VEC2"
  }, {
    "bufferView": 3,
    "componentType": 5123,
    "count": 2880,
    "type": "SCALAR"
  }],
  "bufferViews": [{
    "buffer": 0,
    "byteLength": 6708,
    "byteOffset": 0
  }, {
    "buffer": 0,
    "byteLength": 6708,
    "byteOffset": 6708
  }, {
    "buffer": 0,
    "byteLength": 4472,
    "byteOffset": 13416
  }, {
    "buffer": 0,
    "byteLength": 5760,
    "byteOffset": 17888
  }],
  "buffers": [{
    "byteLength": 23648,
    "uri": "data:application/octet-stream;base64,"
  }]
}